<svg width="191" height="45" viewBox="0 0 191 45" fill="none" xmlns="http://www.w3.org/2000/svg">
<path d="M8.00203 0.314453C4.03167 0.314453 0.783203 3.59361 0.783203 7.60147V36.7495C0.783203 40.7574 4.03167 44.0365 8.00203 44.0365H36.8773C40.8477 44.0365 44.0961 40.7574 44.0961 36.7495V7.60147C44.0961 3.59361 40.8477 0.314453 36.8773 0.314453H8.00203ZM14.4131 29.3517C14.0322 29.488 13.6228 29.5223 13.2248 29.4516L12.4228 29.3058C11.8713 28.5414 10.3185 24.8316 8.97151 21.0613L7.99192 18.3207C6.64489 14.5504 5.62992 10.2977 5.73604 8.87378L6.95674 8.42927L8.17744 7.98476C9.16065 9.01442 10.4499 11.2158 11.0433 12.8765C11.6367 14.5372 13.1216 14.9963 14.343 13.8967L15.7738 13.3691C16.8816 12.9625 18.0581 12.781 19.2357 12.835C20.4132 12.889 21.5686 13.1775 22.6353 13.6839C23.702 14.1902 24.659 14.9045 25.4512 15.7855C26.2435 16.6666 26.8554 17.697 27.2517 18.8176C27.6574 19.9537 27.9505 20.7778 28.1238 21.2675C28.196 21.4803 28.2436 21.6086 28.2682 21.6836C28.2862 21.7361 28.297 21.7696 28.3042 21.7907C28.5 22.3824 28.4571 23.0281 28.1848 23.5881C27.9126 24.148 27.4329 24.5773 26.8495 24.783C26.2661 24.9887 25.626 24.9544 25.0675 24.6873C24.5091 24.4202 24.0772 23.942 23.8654 23.356L23.843 23.297C23.8235 23.2321 23.669 22.7869 23.5016 22.311L22.8273 20.4266C22.6379 19.8888 22.3444 19.3945 21.9639 18.9723C21.5834 18.5501 21.1236 18.2084 20.6111 17.9672C20.1099 17.7288 19.5666 17.5934 19.013 17.569C18.4593 17.5446 17.9065 17.6317 17.3865 17.8251L15.1725 18.6413C14.9971 21.2712 15.0786 24.0789 15.353 24.8812C15.6273 25.6835 15.7522 27.5001 15.6309 28.9174L14.4131 29.3517ZM37.9183 35.9232C37.6278 36.0283 37.3196 36.0747 37.0113 36.0596C36.7031 36.0445 36.4008 35.9683 36.1217 35.8353C35.8426 35.7022 35.5923 35.515 35.3849 35.2843C35.1775 35.0535 35.0172 34.7838 34.9131 34.4905L34.8921 34.4315C33.7241 31.1422 31.7657 29.3525 30.5399 30.4543L29.1055 30.9833C27.998 31.3897 26.8218 31.571 25.6445 31.5168C24.4673 31.4627 23.3123 31.1741 22.2459 30.6678C21.1796 30.1614 20.2229 29.4472 19.4309 28.5663C18.639 27.6854 18.0273 26.6552 17.6312 25.5348C17.2299 24.4104 16.9397 23.5928 16.77 23.1039C16.6978 22.9057 16.6523 22.7628 16.6206 22.6666C16.596 22.5938 16.5816 22.5449 16.5729 22.5151C16.3983 21.9259 16.457 21.2913 16.7365 20.7449C17.016 20.1984 17.4947 19.7828 18.0717 19.5853C18.6486 19.3879 19.279 19.4241 19.8301 19.6864C20.3811 19.9486 20.8099 20.4164 21.0262 20.9914L21.0659 21.0934C21.0977 21.2063 21.2673 21.7128 21.4435 22.2192L22.0527 23.9244C22.2419 24.4621 22.5352 24.9564 22.9156 25.3785C23.296 25.8007 23.7558 26.1421 24.2682 26.383C24.7693 26.6218 25.3125 26.7577 25.866 26.7827C26.4196 26.8077 26.9726 26.7214 27.4929 26.5288C29.7004 25.7141 30.8417 23.2168 30.036 20.9615L30.0295 20.944L29.543 19.4793C29.2824 18.6923 29.177 16.8931 29.3098 15.4809L30.5248 15.051C31.1089 14.8459 31.7497 14.8816 32.3079 15.1504C32.8662 15.4191 33.297 15.8992 33.5069 16.4865C34.7341 19.9296 39.2913 32.7606 39.3368 32.8896C39.441 33.1828 39.4869 33.4938 39.472 33.805C39.4571 34.1161 39.3817 34.4213 39.25 34.703C39.1182 34.9846 38.9328 35.2374 38.7043 35.4468C38.4759 35.6561 38.2087 35.818 37.9183 35.9232Z" fill="white"/>
<path d="M190.84 22.1807C190.846 22.0248 190.835 21.8688 190.809 21.715C190.268 17.3727 187.255 14.6743 182.947 14.6743C178.339 14.6743 174.996 18.1109 174.996 22.8445C174.996 27.5782 178.371 30.8996 183.203 30.8996C185.714 30.8996 187.665 30.0893 189.168 28.422C189.65 27.8988 189.751 27.3792 189.751 27.0375C189.751 25.959 188.836 25.0488 187.752 25.0488C187.159 25.0488 186.651 25.3032 186.243 25.8038C185.545 26.6381 184.616 27.0105 183.231 27.0105C181.354 27.0105 179.86 25.8686 179.572 24.2575H188.582C189.996 24.256 190.84 23.4799 190.84 22.1807ZM186.347 21.0293H179.565C179.798 19.5144 181.149 18.4789 182.947 18.4789C184.709 18.4789 186.067 19.5136 186.347 21.0293Z" fill="white"/>
<path d="M165.936 14.8677C164.469 14.8649 163.031 15.2794 161.787 16.0635C161.548 15.6953 161.198 15.4151 160.788 15.2645C160.378 15.1139 159.931 15.1011 159.514 15.228C159.096 15.3549 158.73 15.6146 158.471 15.9685C158.212 16.3224 158.073 16.7514 158.075 17.1915V35.4309C158.075 35.9729 158.288 36.4927 158.668 36.876C159.048 37.2592 159.563 37.4746 160.1 37.4746C160.637 37.4746 161.152 37.2592 161.531 36.876C161.911 36.4927 162.124 35.9729 162.124 35.4309V29.7128C163.235 30.336 164.479 30.6762 165.749 30.7038C165.795 30.7038 165.84 30.7089 165.887 30.7089H165.967C168.048 30.7049 170.042 29.8665 171.51 28.3783C172.979 26.8901 173.802 24.874 173.798 22.7734C173.794 20.6728 172.963 18.6599 171.489 17.1774C170.015 15.6949 168.017 14.8644 165.936 14.8684V14.8677ZM166.004 26.6202H165.938C164.929 26.6208 163.961 26.2177 163.246 25.4992C162.532 24.7807 162.128 23.8055 162.124 22.7872C162.123 22.2836 162.221 21.7849 162.413 21.32C162.605 20.8551 162.886 20.4334 163.241 20.0794C163.933 19.3792 164.867 18.9761 165.846 18.9542H165.907C166.904 18.9561 167.861 19.3541 168.57 20.0623C169.28 20.7704 169.685 21.7318 169.697 22.7387C169.71 23.7457 169.33 24.7173 168.639 25.4435C167.948 26.1698 167.001 26.5925 166.004 26.6202Z" fill="white"/>
<path d="M154.02 15.1471C153.484 15.1471 152.97 15.3621 152.591 15.7447C152.212 16.1273 151.999 16.6463 151.999 17.1875V22.6593C151.999 23.1625 151.901 23.6608 151.71 24.1258C151.52 24.5908 151.24 25.0133 150.888 25.3692C150.535 25.7252 150.117 26.0076 149.656 26.2002C149.196 26.3929 148.702 26.4921 148.204 26.4922C147.196 26.4911 146.23 26.0864 145.518 25.3669C144.805 24.6475 144.405 23.6721 144.404 22.6549V17.1896C144.404 16.6476 144.19 16.1278 143.811 15.7446C143.431 15.3613 142.916 15.146 142.379 15.146C141.842 15.146 141.327 15.3613 140.948 15.7446C140.568 16.1278 140.355 16.6476 140.355 17.1896V22.6615C140.358 24.7616 141.186 26.7748 142.657 28.2595C144.129 29.7443 146.123 30.5794 148.204 30.5817C149.531 30.5843 150.836 30.2452 151.997 29.5965V35.4261C151.997 35.9681 152.211 36.4879 152.59 36.8712C152.97 37.2545 153.485 37.4698 154.022 37.4698C154.559 37.4698 155.074 37.2545 155.453 36.8712C155.833 36.4879 156.046 35.9681 156.046 35.4261V17.1904C156.047 16.9217 155.995 16.6557 155.893 16.4075C155.791 16.1593 155.642 15.9338 155.454 15.7439C155.265 15.5541 155.042 15.4036 154.796 15.3012C154.55 15.1988 154.286 15.1464 154.02 15.1471Z" fill="white"/>
<path d="M130.939 15.0996H130.892C129.525 15.1059 128.183 15.4662 126.994 16.146V10.3703C126.994 9.8283 126.78 9.30849 126.401 8.92523C126.021 8.54197 125.506 8.32666 124.969 8.32666C124.432 8.32666 123.917 8.54197 123.538 8.92523C123.158 9.30849 122.945 9.8283 122.945 10.3703V28.6024C122.945 29.1444 123.158 29.6642 123.538 30.0475C123.917 30.4308 124.432 30.6461 124.969 30.6461C125.506 30.6461 126.021 30.4308 126.401 30.0475C126.78 29.6642 126.994 29.1444 126.994 28.6024V23.0096C127.001 22.512 127.106 22.0208 127.304 21.5648C127.501 21.1087 127.787 20.697 128.144 20.3535C128.882 19.6139 129.878 19.1954 130.919 19.1876H130.942C131.946 19.1883 132.909 19.5891 133.623 20.3028C134.336 21.0166 134.741 21.9856 134.751 22.9994V28.6031C134.751 29.1452 134.964 29.665 135.344 30.0482C135.724 30.4315 136.239 30.6468 136.776 30.6468C137.312 30.6468 137.827 30.4315 138.207 30.0482C138.587 29.665 138.8 29.1452 138.8 28.6031V22.9863C138.785 20.8907 137.951 18.8859 136.478 17.4087C135.006 15.9314 133.015 15.1014 130.939 15.0996Z" fill="white"/>
<path d="M113.409 14.6743C108.802 14.6743 105.458 18.1109 105.458 22.8445C105.458 27.5782 108.834 30.8996 113.667 30.8996C116.178 30.8996 118.13 30.0893 119.633 28.422C120.114 27.8988 120.215 27.3792 120.215 27.0375C120.215 25.959 119.3 25.0488 118.217 25.0488C117.624 25.0488 117.115 25.3032 116.707 25.8038C116.009 26.6381 115.08 27.0105 113.695 27.0105C111.818 27.0105 110.325 25.8686 110.036 24.2575H119.046C120.459 24.2575 121.303 23.4814 121.303 22.1821C121.308 22.0263 121.298 21.8702 121.272 21.7165C120.731 17.3727 117.717 14.6743 113.409 14.6743ZM116.81 21.0293H110.024C110.257 19.5144 111.607 18.4789 113.406 18.4789C115.171 18.4789 116.529 19.5136 116.81 21.0293Z" fill="white"/>
<path d="M96.3989 14.8677C94.9309 14.8641 93.4916 15.278 92.2459 16.062C92.0068 15.6942 91.6563 15.4143 91.2468 15.2639C90.8372 15.1135 90.3905 15.1008 89.9732 15.2277C89.5559 15.3545 89.1903 15.6141 88.9311 15.9678C88.6719 16.3214 88.5328 16.7501 88.5347 17.1901V35.4295C88.5347 35.9715 88.748 36.4913 89.1277 36.8745C89.5073 37.2578 90.0223 37.4731 90.5592 37.4731C91.0961 37.4731 91.6111 37.2578 91.9908 36.8745C92.3704 36.4913 92.5837 35.9715 92.5837 35.4295V29.7128C93.6943 30.336 94.9387 30.6762 96.209 30.7038C96.2545 30.7038 96.3 30.7089 96.3462 30.7089H96.4328C97.4632 30.7069 98.4831 30.5001 99.4342 30.1002C100.385 29.7003 101.249 29.1152 101.976 28.3783C102.704 27.6414 103.28 26.7672 103.672 25.8055C104.065 24.8438 104.266 23.8135 104.264 22.7734C104.262 21.7333 104.057 20.7038 103.661 19.7436C103.265 18.7834 102.685 17.9114 101.955 17.1774C101.225 16.4434 100.359 15.8616 99.4062 15.4655C98.4535 15.0693 97.4328 14.8664 96.4025 14.8684L96.3989 14.8677ZM96.4667 26.6202H96.4003C95.3917 26.6208 94.4239 26.2178 93.7091 25.4995C92.9943 24.7812 92.5906 23.8061 92.5866 22.788C92.5855 22.2844 92.6837 21.7856 92.8754 21.3207C93.0671 20.8559 93.3486 20.4341 93.7034 20.0801C94.3956 19.3799 95.329 18.9768 96.3086 18.955H96.37C97.3675 18.957 98.3242 19.3552 99.0333 20.0634C99.7425 20.7716 100.147 21.733 100.16 22.7398C100.173 23.7467 99.7923 24.7182 99.1012 25.4444C98.4102 26.1706 97.4639 26.5932 96.4667 26.6209V26.6202Z" fill="white"/>
<path d="M84.4827 15.1466C83.9467 15.1466 83.4325 15.3616 83.0535 15.7442C82.6744 16.1268 82.4615 16.6458 82.4615 17.187V22.6522C82.4613 23.6687 82.0616 24.6435 81.3501 25.3628C80.6386 26.0821 79.6735 26.4871 78.6665 26.4888C77.6589 26.4875 76.693 26.0827 75.9808 25.3633C75.2685 24.6439 74.868 23.6686 74.8673 22.6515V17.1862C74.8673 16.6442 74.654 16.1244 74.2743 15.7411C73.8946 15.3579 73.3797 15.1426 72.8427 15.1426C72.3058 15.1426 71.7909 15.3579 71.4112 15.7411C71.0315 16.1244 70.8182 16.6442 70.8182 17.1862V22.658C70.8213 24.7582 71.6493 26.7714 73.1207 28.2561C74.5921 29.7409 76.5868 30.576 78.6673 30.5783C79.9947 30.5793 81.3004 30.2382 82.4607 29.5873V35.4256C82.4607 35.9676 82.674 36.4874 83.0537 36.8707C83.4334 37.254 83.9483 37.4693 84.4853 37.4693C85.0222 37.4693 85.5371 37.254 85.9168 36.8707C86.2965 36.4874 86.5098 35.9676 86.5098 35.4256V17.1899C86.5102 16.9212 86.458 16.6551 86.3562 16.4068C86.2544 16.1585 86.1051 15.933 85.9167 15.7432C85.7284 15.5533 85.5048 15.4029 85.2587 15.3005C85.0126 15.1981 84.7489 15.1458 84.4827 15.1466Z" fill="white"/>
<path d="M61.3563 15.0996C59.9896 15.1059 58.6474 15.4662 57.4582 16.146V10.3703C57.4582 9.8283 57.2449 9.30849 56.8652 8.92523C56.4855 8.54197 55.9706 8.32666 55.4336 8.32666C54.8967 8.32666 54.3818 8.54197 54.0021 8.92523C53.6224 9.30849 53.4091 9.8283 53.4091 10.3703V28.6024C53.4091 29.1444 53.6224 29.6642 54.0021 30.0475C54.3818 30.4308 54.8967 30.6461 55.4336 30.6461C55.9706 30.6461 56.4855 30.4308 56.8652 30.0475C57.2449 29.6642 57.4582 29.1444 57.4582 28.6024V23.0104C57.4652 22.5128 57.5703 22.0216 57.7674 21.5654C57.9644 21.1093 58.2495 20.6973 58.6059 20.3535C59.3443 19.614 60.34 19.1955 61.3801 19.1876H61.4032C62.4077 19.1881 63.3714 19.5888 64.0848 20.3026C64.7983 21.0164 65.2038 21.9855 65.2133 22.9994V28.6031C65.2133 29.1452 65.4266 29.665 65.8063 30.0482C66.186 30.4315 66.7009 30.6468 67.2379 30.6468C67.7748 30.6468 68.2897 30.4315 68.6694 30.0482C69.0491 29.665 69.2624 29.1452 69.2624 28.6031V22.9863C69.2492 20.8824 68.409 18.8699 66.9266 17.391C65.4441 15.9121 63.4405 15.0879 61.3563 15.0996Z" fill="white"/>
</svg>
