<svg width="64" height="14" viewBox="0 0 64 14" fill="none" xmlns="http://www.w3.org/2000/svg">
<path d="M0.1521 5.36701H2.794V13.6464C2.68306 13.688 2.5097 13.7226 2.27394 13.7504C2.05205 13.792 1.81629 13.8128 1.56666 13.8128C1.0674 13.8128 0.70683 13.7226 0.484938 13.5423C0.263046 13.3482 0.1521 13.0292 0.1521 12.5854V5.36701ZM2.794 8.38336H0.1521V1.06092C0.276914 1.03319 0.450267 0.998514 0.672159 0.956909C0.907919 0.915305 1.14368 0.894503 1.37944 0.894503C1.8787 0.894503 2.23927 0.984646 2.46116 1.16493C2.68306 1.33135 2.794 1.65032 2.794 2.12184V8.38336ZM8.09861 5.36701H10.7197V13.6464C10.6088 13.688 10.4354 13.7226 10.1996 13.7504C9.97776 13.792 9.74893 13.8128 9.51317 13.8128C9.00004 13.8128 8.63253 13.7226 8.41064 13.5423C8.20262 13.3482 8.09861 13.0292 8.09861 12.5854V5.36701ZM10.7197 8.38336H8.09861V1.06092C8.20955 1.03319 8.37597 0.998514 8.59786 0.956909C8.83362 0.915305 9.06938 0.894503 9.30515 0.894503C9.8044 0.894503 10.165 0.984646 10.3869 1.16493C10.6088 1.34522 10.7197 1.67112 10.7197 2.14265V8.38336ZM9.55477 8.38336H1.44185V6.28232H9.55477V8.38336Z" fill="black"/>
<path d="M17.5447 12.0446C17.9607 12.0446 18.3352 12.003 18.668 11.9198C19.0008 11.8366 19.2435 11.7464 19.3961 11.6493V9.27786L17.3366 9.48588C16.7681 9.52749 16.3312 9.6523 16.0261 9.86033C15.7349 10.0545 15.5892 10.3457 15.5892 10.734C15.5892 11.1362 15.7487 11.4552 16.0677 11.6909C16.3867 11.9267 16.879 12.0446 17.5447 12.0446ZM17.4407 3.55721C18.7997 3.55721 19.8815 3.84844 20.6858 4.43091C21.4902 4.99951 21.8924 5.90094 21.8924 7.13522V11.9198C21.8924 12.2526 21.8092 12.5161 21.6427 12.7103C21.4902 12.9044 21.2891 13.0778 21.0395 13.2303C20.6512 13.4522 20.1588 13.6325 19.5625 13.7712C18.9662 13.9237 18.2936 14 17.5447 14C16.1578 14 15.0692 13.7365 14.2787 13.2095C13.4882 12.6686 13.093 11.8712 13.093 10.8172C13.093 9.88806 13.3842 9.18078 13.9667 8.69539C14.563 8.19614 15.4228 7.89104 16.5462 7.78009L19.3753 7.48886V7.11441C19.3753 6.55968 19.1811 6.1575 18.7928 5.90788C18.4184 5.65825 17.8844 5.53343 17.191 5.53343C16.6502 5.53343 16.1232 5.60277 15.6101 5.74146C15.0969 5.88014 14.6393 6.04656 14.2371 6.24071C14.0984 6.12977 13.9736 5.97722 13.8627 5.78306C13.7517 5.58891 13.6962 5.38782 13.6962 5.17979C13.6962 4.68053 13.9736 4.31303 14.5283 4.07727C14.9166 3.89698 15.3674 3.76523 15.8805 3.68202C16.4075 3.59881 16.9275 3.55721 17.4407 3.55721Z" fill="black"/>
<path d="M27.0822 6.19911V9.04903H24.5235V5.99109C24.5235 5.64438 24.6068 5.35315 24.7732 5.11738C24.9396 4.86776 25.1754 4.63893 25.4805 4.43091C25.8965 4.18128 26.4235 3.97325 27.0614 3.80684C27.6994 3.64042 28.3859 3.55721 29.1209 3.55721C30.4245 3.55721 31.0763 3.95939 31.0763 4.76374C31.0763 4.9579 31.0486 5.13819 30.9931 5.30461C30.9376 5.45716 30.8683 5.59584 30.7851 5.72065C30.6464 5.69292 30.473 5.67211 30.265 5.65825C30.057 5.63051 29.8351 5.61664 29.5993 5.61664C29.1001 5.61664 28.6285 5.67212 28.1848 5.78306C27.7548 5.88014 27.3873 6.01882 27.0822 6.19911ZM24.5235 8.19614L27.0822 8.32095V13.6464C26.9713 13.688 26.8118 13.7226 26.6038 13.7504C26.3958 13.792 26.1669 13.8128 25.9173 13.8128C25.4458 13.8128 25.0921 13.7296 24.8564 13.5631C24.6345 13.3829 24.5235 13.0708 24.5235 12.627V8.19614Z" fill="black"/>
<path d="M37.7015 3.55721C38.5891 3.55721 39.3865 3.75136 40.0938 4.13967C40.8149 4.51412 41.3835 5.08965 41.7996 5.86627C42.2156 6.62902 42.4237 7.58593 42.4237 8.737C42.4237 9.90193 42.2018 10.8727 41.758 11.6493C41.3281 12.426 40.7179 13.0084 39.9274 13.3967C39.1508 13.785 38.2424 13.9792 37.2023 13.9792C36.4118 13.9792 35.7184 13.8821 35.122 13.688C34.5396 13.5077 34.0472 13.2927 33.6451 13.0431C33.3538 12.8351 33.1389 12.627 33.0002 12.419C32.8754 12.1971 32.813 11.9267 32.813 11.6077V4.88856H35.3717V11.4413C35.5519 11.5661 35.7946 11.684 36.0997 11.7949C36.4187 11.892 36.7793 11.9406 37.1815 11.9406C37.972 11.9406 38.603 11.6771 39.0745 11.1501C39.5599 10.6231 39.8026 9.81872 39.8026 8.737C39.8026 7.64141 39.5668 6.84398 39.0953 6.34473C38.6238 5.84547 38.0066 5.59584 37.2439 5.59584C36.7585 5.59584 36.3286 5.68598 35.9541 5.86627C35.5797 6.04656 35.2607 6.25458 34.9972 6.49034L34.8308 4.4101C35.1498 4.21595 35.545 4.02873 36.0165 3.84844C36.5019 3.65428 37.0636 3.55721 37.7015 3.55721ZM35.3717 5.47103H32.813V0.166419C32.9239 0.138683 33.0834 0.104013 33.2914 0.0624076C33.4994 0.0208025 33.7283 0 33.9779 0C34.4633 0 34.8169 0.0901437 35.0388 0.270431C35.2607 0.43685 35.3717 0.741952 35.3717 1.18574V5.47103Z" fill="black"/>
<path d="M54.2672 8.7578C54.2672 9.82566 54.0592 10.7548 53.6431 11.5453C53.2271 12.3219 52.6377 12.9252 51.8749 13.3551C51.126 13.7712 50.2385 13.9792 49.2122 13.9792C48.186 13.9792 47.2915 13.7712 46.5287 13.3551C45.766 12.9252 45.1696 12.3219 44.7397 11.5453C44.3237 10.7687 44.1156 9.83952 44.1156 8.7578C44.1156 7.68995 44.3306 6.76771 44.7605 5.99109C45.1904 5.21446 45.7868 4.61813 46.5495 4.20208C47.3123 3.77216 48.1998 3.55721 49.2122 3.55721C50.2246 3.55721 51.1052 3.77216 51.8541 4.20208C52.6169 4.61813 53.2063 5.2214 53.6223 6.01189C54.0522 6.78851 54.2672 7.70381 54.2672 8.7578ZM49.2122 5.59584C48.4495 5.59584 47.8462 5.8732 47.4024 6.42794C46.9725 6.98267 46.7575 7.75929 46.7575 8.7578C46.7575 9.78405 46.9725 10.5745 47.4024 11.1293C47.8323 11.6701 48.4356 11.9406 49.2122 11.9406C49.975 11.9406 50.5713 11.6632 51.0012 11.1085C51.4311 10.5537 51.6461 9.77018 51.6461 8.7578C51.6461 7.77315 51.4311 7.00347 51.0012 6.44874C50.5713 5.88014 49.975 5.59584 49.2122 5.59584Z" fill="black"/>
<path d="M59.0171 6.19911V9.04903H56.4584V5.99109C56.4584 5.64438 56.5417 5.35315 56.7081 5.11738C56.8745 4.86776 57.1103 4.63893 57.4154 4.43091C57.8314 4.18128 58.3584 3.97325 58.9963 3.80684C59.6343 3.64042 60.3207 3.55721 61.0558 3.55721C62.3594 3.55721 63.0112 3.95939 63.0112 4.76374C63.0112 4.9579 62.9835 5.13819 62.928 5.30461C62.8725 5.45716 62.8032 5.59584 62.72 5.72065C62.5813 5.69292 62.4079 5.67211 62.1999 5.65825C61.9919 5.63051 61.77 5.61664 61.5342 5.61664C61.035 5.61664 60.5634 5.67212 60.1197 5.78306C59.6897 5.88014 59.3222 6.01882 59.0171 6.19911ZM56.4584 8.19614L59.0171 8.32095V13.6464C58.9062 13.688 58.7467 13.7226 58.5387 13.7504C58.3307 13.792 58.1018 13.8128 57.8522 13.8128C57.3807 13.8128 57.027 13.7296 56.7913 13.5631C56.5694 13.3829 56.4584 13.0708 56.4584 12.627V8.19614Z" fill="black"/>
</svg>
