<svg width="98" height="98" viewBox="0 0 98 98" fill="none" xmlns="http://www.w3.org/2000/svg">
<path fill-rule="evenodd" clip-rule="evenodd" d="M48.6002 97.4846C75.3775 97.4846 97.0847 75.7774 97.0847 49.0001C97.0847 22.2229 75.3775 0.515625 48.6002 0.515625C21.823 0.515625 0.115723 22.2229 0.115723 49.0001C0.115723 75.7774 21.823 97.4846 48.6002 97.4846ZM26.4146 49.2178C21.6018 55.7047 21.3543 62.616 21.7064 65.3042C22.6932 72.8384 26.5447 75.8604 30.4828 75.163C33.6332 74.6051 35.8484 68.6196 36.5622 65.6966C36.5884 65.5893 36.6308 65.3594 36.6865 65.057C36.8481 64.1801 37.122 62.6935 37.4401 61.8187C37.7842 60.8726 39.0687 60.4387 39.975 60.9808C40.8517 61.5051 41.5305 62.0406 42.1339 62.5165C42.7955 63.0384 43.3663 63.4886 44.0074 63.7738C45.7754 64.5604 47.4949 64.4507 48.2278 64.1454C51.107 63.2183 52.8878 56.5919 53.4183 53.3945C53.8922 50.5386 57.4076 51.1272 57.8254 53.3945C58.0077 54.3833 58.1822 55.7178 58.3983 57.3694C58.6777 59.5049 59.0265 62.1705 59.5507 65.3042C60.7128 72.2506 64.2129 79.6979 69.5869 78.2189C73.8861 77.0357 75.3664 73.2582 75.5691 71.5174C75.8584 65.0798 74.3394 52.4528 73.1098 45.6225C72.1103 40.0708 67.7572 35.0319 64.2129 35.0319C59.5837 35.0319 57.9236 38.1203 57.4076 40.9535C57.098 42.6531 57.0993 44.4301 57.1004 45.9736C57.1004 46.064 57.1005 46.1537 57.1005 46.2424C57.1005 48.3921 55.6922 49.2677 54.3707 48.7675C53.6814 48.5065 52.9401 47.6846 52.5964 47.2661C47.7836 42.3487 44.5934 46.6022 43.4164 49.2178L43.3923 49.2715C43.0656 49.998 42.7157 50.7763 42.1317 51.1272C40.828 51.9108 38.9564 51.432 38.9564 48.5635L39.1378 44.5298C39.1472 44.3719 39.1568 44.2114 39.1666 44.0485C39.3202 41.4804 39.5108 38.2945 39.5649 35.0319C39.64 30.506 39.627 25.7898 37.6619 22.6689C34.1046 17.0191 30.0508 20.4563 28.1148 22.6689C23.7711 27.6332 25.943 33.6677 27.4237 37.7816C27.6906 38.5231 27.935 39.2023 28.1148 39.8015C29.2918 43.725 29.3441 44.9282 26.4146 49.2178Z" fill="white"/>
</svg>
