<svg width="31" height="30" viewBox="0 0 31 30" fill="none" xmlns="http://www.w3.org/2000/svg">
<circle cx="15.1521" cy="15" r="12.6826" fill="white"/>
<path fill-rule="evenodd" clip-rule="evenodd" d="M15.1521 30C23.4364 30 30.1521 23.2843 30.1521 15C30.1521 6.71573 23.4364 0 15.1521 0C6.86783 0 0.1521 6.71573 0.1521 15C0.1521 23.2843 6.86783 30 15.1521 30ZM8.28835 15.0675C6.79937 17.0744 6.72282 19.2126 6.83174 20.0443C7.13702 22.3752 8.3286 23.3101 9.54694 23.0944C10.5216 22.9218 11.207 21.07 11.4278 20.1657C11.4359 20.1325 11.449 20.0614 11.4662 19.9678C11.5162 19.6965 11.601 19.2366 11.6994 18.9659C11.8058 18.6732 12.2032 18.539 12.4836 18.7067C12.7548 18.8689 12.9649 19.0346 13.1515 19.1818C13.3562 19.3433 13.5328 19.4826 13.7312 19.5708C14.2782 19.8142 14.8101 19.7802 15.0369 19.6858C15.9276 19.399 16.4785 17.3489 16.6427 16.3597C16.7893 15.4761 17.8769 15.6583 18.0061 16.3597C18.0625 16.6656 18.1165 17.0785 18.1834 17.5894C18.2698 18.2501 18.3777 19.0748 18.5399 20.0443C18.8994 22.1933 19.9823 24.4974 21.6449 24.0398C22.975 23.6737 23.4329 22.5051 23.4956 21.9665C23.5851 19.9749 23.1152 16.0684 22.7348 13.9552C22.4256 12.2376 21.0788 10.6787 19.9823 10.6787C18.5501 10.6787 18.0365 11.6342 17.8769 12.5107C17.7811 13.0366 17.7815 13.5863 17.7818 14.0638C17.7819 14.0918 17.7819 14.1195 17.7819 14.147C17.7819 14.8121 17.3462 15.083 16.9373 14.9282C16.7241 14.8475 16.4947 14.5932 16.3884 14.4637C14.8994 12.9424 13.9125 14.2583 13.5483 15.0675L13.5408 15.0842C13.4398 15.3089 13.3315 15.5497 13.1509 15.6583C12.7475 15.9007 12.1685 15.7525 12.1685 14.8651L12.2246 13.6172C12.2275 13.5683 12.2305 13.5187 12.2335 13.4683C12.281 12.6738 12.34 11.6881 12.3568 10.6787C12.38 9.27851 12.376 7.81943 11.768 6.8539C10.6675 5.10597 9.41332 6.16936 8.81435 6.8539C7.4705 8.38972 8.14245 10.2567 8.60054 11.5294C8.68311 11.7588 8.75873 11.9689 8.81435 12.1543C9.1785 13.3682 9.19468 13.7404 8.28835 15.0675Z" fill="url(#paint0_linear_207_638)"/>
<defs>
<linearGradient id="paint0_linear_207_638" x1="0.1521" y1="0" x2="30.1521" y2="30" gradientUnits="userSpaceOnUse">
<stop stop-color="#0081F7"/>
<stop offset="1" stop-color="#00AAEB"/>
</linearGradient>
</defs>
</svg>
