<svg width="25" height="25" viewBox="0 0 25 25" fill="none" xmlns="http://www.w3.org/2000/svg">
<path d="M19.5698 20.4505C19.3798 20.4505 19.1898 20.3805 19.0398 20.2305C18.7498 19.9405 18.7498 19.4605 19.0398 19.1705C22.6498 15.5605 22.6498 9.69049 19.0398 6.09049C18.7498 5.80049 18.7498 5.32049 19.0398 5.03049C19.3298 4.74049 19.8098 4.74049 20.0998 5.03049C24.2898 9.22049 24.2898 16.0405 20.0998 20.2305C19.9498 20.3805 19.7598 20.4505 19.5698 20.4505Z" fill="white"/>
<path d="M5.42982 20.4505C5.23982 20.4505 5.04982 20.3805 4.89982 20.2305C0.709824 16.0405 0.709824 9.22049 4.89982 5.03049C5.18982 4.74049 5.66982 4.74049 5.95982 5.03049C6.24982 5.32049 6.24982 5.80049 5.95982 6.09049C2.34982 9.70049 2.34982 15.5705 5.95982 19.1705C6.24982 19.4605 6.24982 19.9405 5.95982 20.2305C5.80982 20.3805 5.61982 20.4505 5.42982 20.4505Z" fill="white"/>
<path d="M12.4998 23.3403C11.2498 23.3303 10.0598 23.1303 8.94976 22.7403C8.55976 22.6003 8.34976 22.1703 8.48976 21.7803C8.62976 21.3903 9.04976 21.1803 9.44976 21.3203C10.4098 21.6503 11.4298 21.8303 12.5098 21.8303C13.5798 21.8303 14.6098 21.6503 15.5598 21.3203C15.9498 21.1903 16.3798 21.3903 16.5198 21.7803C16.6598 22.1703 16.4498 22.6003 16.0598 22.7403C14.9398 23.1303 13.7498 23.3403 12.4998 23.3403Z" fill="white"/>
<path d="M15.7998 3.97041C15.7198 3.97041 15.6298 3.96041 15.5498 3.93041C14.5998 3.59041 13.5698 3.42041 12.4998 3.42041C11.4298 3.42041 10.4098 3.60041 9.44976 3.93041C9.04976 4.06041 8.62976 3.86041 8.48976 3.47041C8.34976 3.08041 8.55976 2.65041 8.94976 2.51041C10.0698 2.12041 11.2598 1.92041 12.4998 1.92041C13.7398 1.92041 14.9398 2.12041 16.0498 2.51041C16.4398 2.65041 16.6498 3.08041 16.5098 3.47041C16.3998 3.78041 16.1098 3.97041 15.7998 3.97041Z" fill="white"/>
<path d="M9.24023 12.6305V10.9605C9.24023 8.88052 10.7102 8.03051 12.5102 9.07051L13.9602 9.91051L15.4102 10.7505C17.2102 11.7905 17.2102 13.4905 15.4102 14.5305L13.9602 15.3705L12.5102 16.2105C10.7102 17.2505 9.24023 16.4005 9.24023 14.3205V12.6305Z" fill="white"/>
</svg>
