<svg width="50" height="51" viewBox="0 0 50 51" fill="none" xmlns="http://www.w3.org/2000/svg">
<path d="M25 4.85547C13.5209 4.85547 4.16669 14.2096 4.16669 25.6888C4.16669 37.168 13.5209 46.5221 25 46.5221C36.4792 46.5221 45.8334 37.168 45.8334 25.6888C45.8334 14.2096 36.4792 4.85547 25 4.85547ZM30.8125 26.793L23.4584 34.1471C23.1459 34.4596 22.75 34.6055 22.3542 34.6055C21.9584 34.6055 21.5625 34.4596 21.25 34.1471C20.6459 33.543 20.6459 32.543 21.25 31.9388L27.5 25.6888L21.25 19.4388C20.6459 18.8346 20.6459 17.8346 21.25 17.2305C21.8542 16.6263 22.8542 16.6263 23.4584 17.2305L30.8125 24.5846C31.4375 25.1888 31.4375 26.1888 30.8125 26.793Z" fill="url(#paint0_linear_88_1657)"/>
<defs>
<linearGradient id="paint0_linear_88_1657" x1="4.16669" y1="4.85547" x2="45.8334" y2="46.5221" gradientUnits="userSpaceOnUse">
<stop stop-color="#0081F7"/>
<stop offset="1" stop-color="#00AAEB"/>
</linearGradient>
</defs>
</svg>
