<svg width="42" height="43" viewBox="0 0 42 43" fill="none" xmlns="http://www.w3.org/2000/svg">
<path d="M20.9268 0.369385C9.44761 0.369385 0.0934448 9.72355 0.0934448 21.2027C0.0934448 32.6819 9.44761 42.036 20.9268 42.036C32.4059 42.036 41.7601 32.6819 41.7601 21.2027C41.7601 9.72355 32.4059 0.369385 20.9268 0.369385ZM24.6559 27.4527C25.2601 28.0569 25.2601 29.0569 24.6559 29.661C24.3434 29.9735 23.9476 30.1194 23.5518 30.1194C23.1559 30.1194 22.7601 29.9735 22.4476 29.661L15.0934 22.3069C14.4893 21.7027 14.4893 20.7027 15.0934 20.0986L22.4476 12.7444C23.0518 12.1402 24.0518 12.1402 24.6559 12.7444C25.2601 13.3486 25.2601 14.3486 24.6559 14.9527L18.4059 21.2027L24.6559 27.4527Z" fill="#6C798F"/>
</svg>
