<svg width="50" height="51" viewBox="0 0 50 51" fill="none" xmlns="http://www.w3.org/2000/svg">
<path d="M25 4.85547C13.5209 4.85547 4.16669 14.2096 4.16669 25.6888C4.16669 37.168 13.5209 46.5221 25 46.5221C36.4792 46.5221 45.8334 37.168 45.8334 25.6888C45.8334 14.2096 36.4792 4.85547 25 4.85547ZM28.7292 31.9388C29.3334 32.543 29.3334 33.543 28.7292 34.1471C28.4167 34.4596 28.0209 34.6055 27.625 34.6055C27.2292 34.6055 26.8334 34.4596 26.5209 34.1471L19.1667 26.793C18.5625 26.1888 18.5625 25.1888 19.1667 24.5846L26.5209 17.2305C27.125 16.6263 28.125 16.6263 28.7292 17.2305C29.3334 17.8346 29.3334 18.8346 28.7292 19.4388L22.4792 25.6888L28.7292 31.9388Z" fill="#6C798F"/>
</svg>
