<svg width="42" height="43" viewBox="0 0 42 43" fill="none" xmlns="http://www.w3.org/2000/svg">
<path d="M20.9267 0.369385C9.44758 0.369385 0.0934143 9.72355 0.0934143 21.2027C0.0934143 32.6819 9.44758 42.036 20.9267 42.036C32.4059 42.036 41.7601 32.6819 41.7601 21.2027C41.7601 9.72355 32.4059 0.369385 20.9267 0.369385ZM26.7392 22.3069L19.3851 29.661C19.0726 29.9735 18.6767 30.1194 18.2809 30.1194C17.8851 30.1194 17.4892 29.9735 17.1767 29.661C16.5726 29.0569 16.5726 28.0569 17.1767 27.4527L23.4267 21.2027L17.1767 14.9527C16.5726 14.3486 16.5726 13.3486 17.1767 12.7444C17.7809 12.1402 18.7809 12.1402 19.3851 12.7444L26.7392 20.0986C27.3642 20.7027 27.3642 21.7027 26.7392 22.3069Z" fill="#6C798F"/>
</svg>
