<svg width="33" height="34" viewBox="0 0 33 34" fill="none" xmlns="http://www.w3.org/2000/svg">
<path d="M9.80939 31.3108C9.7611 31.3108 9.69671 31.343 9.64842 31.343C6.52578 29.7977 3.98259 27.2384 2.42126 24.1158C2.42126 24.0675 2.45346 24.0031 2.45346 23.9548C4.41718 24.5343 6.4453 24.9689 8.45731 25.3069C8.81143 27.335 9.22993 29.347 9.80939 31.3108Z" fill="white"/>
<path d="M31.2002 24.1319C29.6066 27.335 26.9508 29.9265 23.7155 31.4878C24.3271 29.4436 24.8422 27.3833 25.1802 25.3069C27.2083 24.9689 29.2042 24.5343 31.168 23.9548C31.1519 24.0192 31.2002 24.0836 31.2002 24.1319Z" fill="white"/>
<path d="M31.3289 10.0639C29.3008 9.45225 27.2566 8.95327 25.1802 8.59916C24.8422 6.52276 24.3432 4.46245 23.7155 2.45044C27.0474 4.04396 29.7354 6.73201 31.3289 10.0639Z" fill="white"/>
<path d="M9.81126 2.62739C9.2318 4.59112 8.8133 6.58704 8.47528 8.61515C6.39888 8.93707 4.33858 9.45215 2.29437 10.0638C3.8557 6.82848 6.44717 4.17262 9.6503 2.5791C9.69859 2.5791 9.76297 2.62739 9.81126 2.62739Z" fill="white"/>
<path d="M22.4292 8.26117C18.6949 7.84267 14.9284 7.84267 11.1941 8.26117C11.5965 6.056 12.1116 3.85083 12.8359 1.72614C12.8681 1.59737 12.852 1.5008 12.8681 1.37203C14.1397 1.0662 15.4435 0.873047 16.8116 0.873047C18.1637 0.873047 19.4836 1.0662 20.7391 1.37203C20.7552 1.5008 20.7552 1.59737 20.7874 1.72614C21.5117 3.86693 22.0268 6.056 22.4292 8.26117Z" fill="white"/>
<path d="M8.10492 22.5867C5.88365 22.1843 3.69458 21.6692 1.56989 20.9449C1.44112 20.9127 1.34455 20.9288 1.21578 20.9127C0.90995 19.6411 0.716797 18.3373 0.716797 16.9691C0.716797 15.617 0.90995 14.2972 1.21578 13.0417C1.34455 13.0256 1.44112 13.0256 1.56989 12.9934C3.71068 12.2851 5.88365 11.754 8.10492 11.3516C7.70251 15.0859 7.70251 18.8524 8.10492 22.5867Z" fill="white"/>
<path d="M32.9075 16.9691C32.9075 18.3373 32.7144 19.6411 32.4086 20.9127C32.2798 20.9288 32.1832 20.9127 32.0544 20.9449C29.9137 21.6531 27.7246 22.1843 25.5194 22.5867C25.9379 18.8524 25.9379 15.0859 25.5194 11.3516C27.7246 11.754 29.9297 12.269 32.0544 12.9934C32.1832 13.0256 32.2798 13.0417 32.4086 13.0417C32.7144 14.3133 32.9075 15.617 32.9075 16.9691Z" fill="white"/>
<path d="M22.4292 25.6772C22.0268 27.8985 21.5117 30.0876 20.7874 32.2123C20.7552 32.341 20.7552 32.4376 20.7391 32.5664C19.4836 32.8722 18.1637 33.0654 16.8116 33.0654C15.4435 33.0654 14.1397 32.8722 12.8681 32.5664C12.852 32.4376 12.8681 32.341 12.8359 32.2123C12.1277 30.0715 11.5965 27.8985 11.1941 25.6772C13.0612 25.8865 14.9284 26.0314 16.8116 26.0314C18.6949 26.0314 20.5781 25.8865 22.4292 25.6772Z" fill="white"/>
<path d="M22.8704 23.0267C18.8446 23.5346 14.7812 23.5346 10.7554 23.0267C10.2475 19.0009 10.2475 14.9375 10.7554 10.9117C14.7812 10.4038 18.8446 10.4038 22.8704 10.9117C23.3783 14.9375 23.3783 19.0009 22.8704 23.0267Z" fill="white"/>
</svg>
