<svg width="29" height="32" viewBox="0 0 29 32" fill="none" xmlns="http://www.w3.org/2000/svg">
<path d="M26.4852 6.25011L17.0979 0.829517C15.565 -0.055477 13.6686 -0.055477 12.1198 0.829517L2.74836 6.25011C1.21542 7.1351 0.267212 8.77866 0.267212 10.5645V21.374C0.267212 23.144 1.21542 24.7876 2.74836 25.6884L12.1356 31.109C13.6686 31.994 15.565 31.994 17.1137 31.109L26.501 25.6884C28.0339 24.8034 28.9821 23.1598 28.9821 21.374V10.5645C28.9663 8.77866 28.0181 7.1509 26.4852 6.25011ZM14.6168 8.60482C16.6554 8.60482 18.299 10.2484 18.299 12.287C18.299 14.3257 16.6554 15.9692 14.6168 15.9692C12.5781 15.9692 10.9346 14.3257 10.9346 12.287C10.9346 10.2642 12.5781 8.60482 14.6168 8.60482ZM18.8521 23.3337H10.3814C9.10135 23.3337 8.35859 21.9113 9.06974 20.8525C10.1444 19.2564 12.2304 18.1817 14.6168 18.1817C17.0031 18.1817 19.0891 19.2564 20.1638 20.8525C20.8749 21.8955 20.1164 23.3337 18.8521 23.3337Z" fill="white"/>
</svg>
