<svg width="33" height="33" viewBox="0 0 33 33" fill="none" xmlns="http://www.w3.org/2000/svg">
<path d="M19.2069 17.6812H16.8363H10.91V23.9867C10.91 24.4292 11.2735 24.7927 11.716 24.7927H19.2069C21.1665 24.7927 22.7626 23.1966 22.7626 21.2369C22.7626 19.2773 21.1665 17.6812 19.2069 17.6812Z" fill="white"/>
<path d="M20.3921 11.7548C20.3921 9.79512 18.796 8.19897 16.8363 8.19897H11.716C11.2735 8.19897 10.91 8.56245 10.91 9.00495V15.3105H16.8363C18.796 15.3105 20.3921 13.7144 20.3921 11.7548Z" fill="white"/>
<path d="M30.5853 4.05852C30.127 3.39478 29.5422 2.81005 28.8785 2.35175C27.3772 1.26131 25.4175 0.692383 23.0628 0.692383H9.81951C9.50344 0.692383 9.18737 0.708186 8.8871 0.739793C3.70357 1.07167 0.637695 4.4378 0.637695 9.8742V23.1175C0.637695 25.4722 1.20662 27.4319 2.29706 28.9332C2.75536 29.5969 3.34009 30.1817 4.00383 30.64C5.29972 31.5882 6.94328 32.1413 8.8871 32.2677C9.18737 32.2835 9.50344 32.2993 9.81951 32.2993H23.0628C28.8153 32.2993 32.2446 28.87 32.2446 23.1175V9.8742C32.2446 7.51948 31.6757 5.55985 30.5853 4.05852ZM19.2068 27.1632H11.7159C9.96174 27.1632 8.53943 25.7409 8.53943 23.9867V16.4958V9.00501C8.53943 7.25082 9.96174 5.82851 11.7159 5.82851H16.8362C20.1076 5.82851 22.7625 8.48349 22.7625 11.7548C22.7625 13.2719 22.1778 14.6468 21.2296 15.6899C23.4895 16.5275 25.1331 18.6767 25.1331 21.2369C25.1331 24.5082 22.4781 27.1632 19.2068 27.1632Z" fill="white"/>
</svg>
